<svg width="56" height="57" viewBox="0 0 56 57" fill="none" xmlns="http://www.w3.org/2000/svg">
<path d="M26.5542 17.2894C24.5017 17.2894 21.3245 14.9557 17.9786 15.0401C13.5643 15.0963 9.51556 17.5987 7.23812 21.5631C2.65513 29.5201 6.05723 41.2728 10.5278 47.7396C12.7208 50.8886 15.3076 54.4313 18.7378 54.3189C22.0274 54.1783 23.2646 52.182 27.2571 52.182C31.2215 52.182 32.3462 54.3189 35.8326 54.2345C39.3753 54.1783 41.6247 51.0292 43.7896 47.8521C46.292 44.1969 47.3323 40.6542 47.3885 40.4574C47.3042 40.4293 40.5 37.8145 40.4156 29.9418C40.3594 23.3626 45.7859 20.2135 46.0389 20.0729C42.9461 15.5462 38.1944 15.0401 36.5356 14.9276C32.2056 14.5902 28.5786 17.2894 26.5542 17.2894ZM33.8645 10.6539C35.6921 8.46079 36.9011 5.39608 36.5637 2.3595C33.9488 2.47196 30.7998 4.10272 28.916 6.29581C27.229 8.23585 25.7669 11.3568 26.1606 14.3371C29.0566 14.5621 32.0369 12.847 33.8645 10.6539Z" fill="#888888"/>
</svg>
