<svg width="35" height="35" viewBox="0 0 35 35" fill="none" xmlns="http://www.w3.org/2000/svg">
<path d="M30.3242 17.0215C30.3242 17.4442 30.1563 17.8495 29.8574 18.1484C29.5585 18.4473 29.1532 18.6152 28.7305 18.6152H18.6367V28.709C18.6367 29.1317 18.4688 29.537 18.1699 29.8359C17.871 30.1348 17.4657 30.3027 17.043 30.3027C16.6203 30.3027 16.2149 30.1348 15.916 29.8359C15.6171 29.537 15.4492 29.1317 15.4492 28.709V18.6152H5.35547C4.93278 18.6152 4.5274 18.4473 4.22852 18.1484C3.92963 17.8495 3.76172 17.4442 3.76172 17.0215C3.76172 16.5988 3.92963 16.1934 4.22852 15.8945C4.5274 15.5956 4.93278 15.4277 5.35547 15.4277H15.4492V5.33398C15.4492 4.9113 15.6171 4.50592 15.916 4.20703C16.2149 3.90815 16.6203 3.74023 17.043 3.74023C17.4657 3.74023 17.871 3.90815 18.1699 4.20703C18.4688 4.50592 18.6367 4.9113 18.6367 5.33398V15.4277H28.7305C29.1532 15.4277 29.5585 15.5956 29.8574 15.8945C30.1563 16.1934 30.3242 16.5988 30.3242 17.0215Z" fill="#4F4F4F"/>
</svg>
